<mxfile host="app.diagrams.net" agent="Mozilla/5.0 (Windows NT 10.0; Win64; x64) AppleWebKit/537.36 (KHTML, like Gecko) Chrome/135.0.0.0 Safari/537.36" version="26.2.10">
  <diagram name="Page-1" id="7e0a89b8-554c-2b80-1dc8-d5c74ca68de4">
    <mxGraphModel dx="1215" dy="710" grid="0" gridSize="10" guides="1" tooltips="1" connect="1" arrows="1" fold="1" page="1" pageScale="1" pageWidth="1100" pageHeight="850" background="none" math="0" shadow="0">
      <root>
        <mxCell id="0" />
        <mxCell id="1" parent="0" />
        <mxCell id="eWZYyE1SWQtNZKoHh4lj-1" value="" style="rounded=0;whiteSpace=wrap;html=1;fontSize=15;strokeWidth=2;" vertex="1" parent="1">
          <mxGeometry x="275" y="180" width="500" height="640" as="geometry" />
        </mxCell>
        <mxCell id="eWZYyE1SWQtNZKoHh4lj-3" value="C1" style="rounded=0;whiteSpace=wrap;html=1;fontSize=15;strokeWidth=2;" vertex="1" parent="1">
          <mxGeometry x="415" y="250" width="220" height="120" as="geometry" />
        </mxCell>
        <mxCell id="eWZYyE1SWQtNZKoHh4lj-4" value="C2" style="rounded=0;whiteSpace=wrap;html=1;fontSize=15;strokeWidth=2;" vertex="1" parent="1">
          <mxGeometry x="415" y="440" width="220" height="120" as="geometry" />
        </mxCell>
        <mxCell id="eWZYyE1SWQtNZKoHh4lj-5" value="C3" style="rounded=0;whiteSpace=wrap;html=1;fontSize=15;strokeWidth=2;" vertex="1" parent="1">
          <mxGeometry x="415" y="630" width="220" height="120" as="geometry" />
        </mxCell>
        <mxCell id="eWZYyE1SWQtNZKoHh4lj-6" value="top" style="text;html=1;align=center;verticalAlign=middle;resizable=0;points=[];autosize=1;strokeColor=none;fillColor=none;fontSize=15;strokeWidth=2;" vertex="1" parent="1">
          <mxGeometry x="285" y="190" width="40" height="30" as="geometry" />
        </mxCell>
        <mxCell id="eWZYyE1SWQtNZKoHh4lj-7" value="counter_WIDTH_4" style="text;html=1;align=center;verticalAlign=middle;resizable=0;points=[];autosize=1;strokeColor=none;fillColor=none;fontSize=15;strokeWidth=2;" vertex="1" parent="1">
          <mxGeometry x="450" y="250" width="150" height="30" as="geometry" />
        </mxCell>
        <mxCell id="eWZYyE1SWQtNZKoHh4lj-8" value="counter_WIDTH_8" style="text;html=1;align=center;verticalAlign=middle;resizable=0;points=[];autosize=1;strokeColor=none;fillColor=none;fontSize=15;strokeWidth=2;" vertex="1" parent="1">
          <mxGeometry x="450" y="440" width="150" height="30" as="geometry" />
        </mxCell>
        <mxCell id="eWZYyE1SWQtNZKoHh4lj-9" value="counter_WIDTH_16" style="text;html=1;align=center;verticalAlign=middle;resizable=0;points=[];autosize=1;strokeColor=none;fillColor=none;fontSize=15;strokeWidth=2;" vertex="1" parent="1">
          <mxGeometry x="445" y="630" width="160" height="30" as="geometry" />
        </mxCell>
        <mxCell id="eWZYyE1SWQtNZKoHh4lj-30" value="Figure 10.5 Given design after elaboration (connections not shown)" style="text;html=1;align=center;verticalAlign=middle;resizable=0;points=[];autosize=1;strokeColor=none;fillColor=none;fontSize=20;strokeWidth=2;" vertex="1" parent="1">
          <mxGeometry x="235" y="103" width="620" height="40" as="geometry" />
        </mxCell>
        <mxCell id="eWZYyE1SWQtNZKoHh4lj-31" value="clk" style="fontStyle=0;labelPosition=right;verticalLabelPosition=middle;align=left;verticalAlign=middle;spacingLeft=2;html=1;strokeWidth=2;" vertex="1" parent="1">
          <mxGeometry x="270" y="395" width="10" height="10" as="geometry" />
        </mxCell>
        <mxCell id="eWZYyE1SWQtNZKoHh4lj-35" value="rst" style="fontStyle=0;labelPosition=right;verticalLabelPosition=middle;align=left;verticalAlign=middle;spacingLeft=2;html=1;strokeWidth=2;" vertex="1" parent="1">
          <mxGeometry x="270" y="595" width="10" height="10" as="geometry" />
        </mxCell>
        <mxCell id="eWZYyE1SWQtNZKoHh4lj-36" value="clk" style="fontStyle=0;labelPosition=right;verticalLabelPosition=middle;align=left;verticalAlign=middle;spacingLeft=2;html=1;strokeWidth=2;" vertex="1" parent="1">
          <mxGeometry x="410" y="289" width="10" height="10" as="geometry" />
        </mxCell>
        <mxCell id="eWZYyE1SWQtNZKoHh4lj-37" value="rst" style="fontStyle=0;labelPosition=right;verticalLabelPosition=middle;align=left;verticalAlign=middle;spacingLeft=2;html=1;strokeWidth=2;" vertex="1" parent="1">
          <mxGeometry x="410" y="332" width="10" height="10" as="geometry" />
        </mxCell>
        <mxCell id="eWZYyE1SWQtNZKoHh4lj-39" value="clk" style="fontStyle=0;labelPosition=right;verticalLabelPosition=middle;align=left;verticalAlign=middle;spacingLeft=2;html=1;strokeWidth=2;" vertex="1" parent="1">
          <mxGeometry x="410" y="473.5" width="10" height="10" as="geometry" />
        </mxCell>
        <mxCell id="eWZYyE1SWQtNZKoHh4lj-40" value="rst" style="fontStyle=0;labelPosition=right;verticalLabelPosition=middle;align=left;verticalAlign=middle;spacingLeft=2;html=1;strokeWidth=2;" vertex="1" parent="1">
          <mxGeometry x="410" y="516.5" width="10" height="10" as="geometry" />
        </mxCell>
        <mxCell id="eWZYyE1SWQtNZKoHh4lj-41" value="clk" style="fontStyle=0;labelPosition=right;verticalLabelPosition=middle;align=left;verticalAlign=middle;spacingLeft=2;html=1;strokeWidth=2;" vertex="1" parent="1">
          <mxGeometry x="410" y="660" width="10" height="10" as="geometry" />
        </mxCell>
        <mxCell id="eWZYyE1SWQtNZKoHh4lj-42" value="rst" style="fontStyle=0;labelPosition=right;verticalLabelPosition=middle;align=left;verticalAlign=middle;spacingLeft=2;html=1;strokeWidth=2;" vertex="1" parent="1">
          <mxGeometry x="410" y="703" width="10" height="10" as="geometry" />
        </mxCell>
        <mxCell id="eWZYyE1SWQtNZKoHh4lj-43" value="&lt;span style=&quot;font-size: 15px; text-align: center;&quot;&gt;count [7:0]&lt;/span&gt;" style="fontStyle=0;labelPosition=right;verticalLabelPosition=middle;align=left;verticalAlign=middle;spacingLeft=2;html=1;strokeWidth=2;" vertex="1" parent="1">
          <mxGeometry x="630" y="495" width="10" height="10" as="geometry" />
        </mxCell>
        <mxCell id="eWZYyE1SWQtNZKoHh4lj-44" value="&lt;span style=&quot;font-size: 15px; text-align: center;&quot;&gt;count [15:0]&lt;/span&gt;" style="fontStyle=0;labelPosition=right;verticalLabelPosition=middle;align=left;verticalAlign=middle;spacingLeft=2;html=1;strokeWidth=2;" vertex="1" parent="1">
          <mxGeometry x="630" y="685" width="10" height="10" as="geometry" />
        </mxCell>
        <mxCell id="eWZYyE1SWQtNZKoHh4lj-45" value="&lt;span style=&quot;font-size: 15px; text-align: center;&quot;&gt;count [3:0]&lt;/span&gt;" style="fontStyle=0;labelPosition=right;verticalLabelPosition=middle;align=left;verticalAlign=middle;spacingLeft=2;html=1;strokeWidth=2;" vertex="1" parent="1">
          <mxGeometry x="630" y="300" width="10" height="10" as="geometry" />
        </mxCell>
        <mxCell id="eWZYyE1SWQtNZKoHh4lj-46" value="&lt;span style=&quot;font-size: 15px; text-align: center;&quot;&gt;count3 [3:0]&lt;/span&gt;" style="fontStyle=0;labelPosition=right;verticalLabelPosition=middle;align=left;verticalAlign=middle;spacingLeft=2;html=1;strokeWidth=2;" vertex="1" parent="1">
          <mxGeometry x="770" y="300" width="10" height="10" as="geometry" />
        </mxCell>
        <mxCell id="eWZYyE1SWQtNZKoHh4lj-47" value="&lt;span style=&quot;font-size: 15px; text-align: center;&quot;&gt;count2 [7:0]&lt;/span&gt;" style="fontStyle=0;labelPosition=right;verticalLabelPosition=middle;align=left;verticalAlign=middle;spacingLeft=2;html=1;strokeWidth=2;" vertex="1" parent="1">
          <mxGeometry x="770" y="495" width="10" height="10" as="geometry" />
        </mxCell>
        <mxCell id="eWZYyE1SWQtNZKoHh4lj-48" value="&lt;span style=&quot;font-size: 15px; text-align: center;&quot;&gt;count1 [15:0]&lt;/span&gt;" style="fontStyle=0;labelPosition=right;verticalLabelPosition=middle;align=left;verticalAlign=middle;spacingLeft=2;html=1;strokeWidth=2;" vertex="1" parent="1">
          <mxGeometry x="770" y="685" width="10" height="10" as="geometry" />
        </mxCell>
      </root>
    </mxGraphModel>
  </diagram>
</mxfile>
